<mxfile host="app.diagrams.net" modified="2023-08-15T11:05:34.748Z" agent="Mozilla/5.0 (X11; Linux x86_64) AppleWebKit/537.36 (KHTML, like Gecko) Chrome/115.0.0.0 Safari/537.36" version="21.6.8" etag="39OLPkmhfHedhMy5f6ts" type="github">
  <diagram name="第 1 页" id="3yYCxlaRxzgi1qt_8z8O">
    <mxGraphModel>
      <root>
        <mxCell id="0" />
        <mxCell id="1" parent="0" />
      </root>
    </mxGraphModel>
  </diagram>
</mxfile>
